<?xml version="1.0" encoding="UTF-8"?>
<svg width="24px" height="24px" viewBox="0 0 24 24" version="1.1" xmlns="http://www.w3.org/2000/svg">
    <g stroke="none" stroke-width="1" fill="none" fill-rule="evenodd">
        <path d="M17.05,20.28c-.98,1.69-2.02,1.7-3.01,1.7-1,0-1.96-.98-3.01-.98s-2.01,.98-3.01,.98-2.03-.01-3.01-1.7c-1.99-3.45-2.19-7.47-.96-9.61,.87-1.52,2.24-2.39,3.56-2.39,1.33,0,2.17,.98,3.27,.98s2.14-.98,3.27-.98c1.32,0,2.69,.87,3.56,2.39,.45,.79,.7,1.65,.7,2.48-.77,.46-1.41,1.25-1.71,2.19-.3,.94-.19,1.95,.3,2.77l.08,.13c-.61,.88-1.27,1.68-2.03,2.34M14.25,6.08c-.63,.93-1.85,1.65-2.96,1.6-.15-1.24,.45-2.54,1.06-3.35,.67-.9,1.94-1.61,2.96-1.56,.13,1.22-.41,2.52-1.06,3.31" fill="#000000"></path>
    </g>
</svg> 