<?xml version="1.0" encoding="UTF-8"?>
<svg width="24px" height="24px" viewBox="0 0 24 24" version="1.1" xmlns="http://www.w3.org/2000/svg">
    <g stroke="none" stroke-width="1" fill="none" fill-rule="evenodd">
        <path d="M12,15.5 C10.07,15.5 8.5,13.93 8.5,12 C8.5,10.07 10.07,8.5 12,8.5 C13.93,8.5 15.5,10.07 15.5,12 C15.5,13.93 13.93,15.5 12,15.5 M20,4 L16.83,4 L15,2 L9,2 L7.17,4 L4,4 C2.9,4 2,4.9 2,6 L2,18 C2,19.1 2.9,20 4,20 L20,20 C21.1,20 22,19.1 22,18 L22,6 C22,4.9 21.1,4 20,4" fill="#FFFFFF"></path>
    </g>
</svg> 