<?xml version="1.0" encoding="UTF-8"?>
<svg width="24px" height="24px" viewBox="0 0 24 24" version="1.1" xmlns="http://www.w3.org/2000/svg">
    <g stroke="none" stroke-width="1" fill="none" fill-rule="evenodd">
        <path d="M7.5,5.6L5,7l1.4-2.5L5,2l2.5,1.4L10,2L8.6,4.5L10,7L7.5,5.6z M19.5,13.4L17,15l1.4-2.5L17,10l2.5,1.4L22,10l-1.4,2.5L22,15L19.5,13.4z M22,19l-2.5,1.4L17,19l1.4,2.5L17,24l2.5-1.4L22,24l-1.4-2.5L22,19z M14.37,7.29c-0.39-0.39-1.02-0.39-1.41,0L1.29,18.96c-0.39,0.39-0.39,1.02,0,1.41l2.34,2.34C3.82,22.9,4.06,23,4.29,23s0.47-0.1,0.66-0.29L16.62,11.04c0.39-0.39,0.39-1.02,0-1.41L14.37,7.29z" fill="#FFFFFF"></path>
    </g>
</svg> 