<?xml version="1.0" encoding="UTF-8"?>
<svg width="24px" height="24px" viewBox="0 0 24 24" version="1.1" xmlns="http://www.w3.org/2000/svg">
    <g stroke="none" stroke-width="1" fill="none" fill-rule="evenodd">
        <path d="M3.609375,1.5 L13.490625,11.38125 L16.490625,8.38125 L4.6875,2.00625 C4.359375,1.828125 3.984375,1.78125 3.609375,1.5 Z M2.53125,2.15625 C2.203125,2.484375 2,2.95625 2,3.515625 L2,20.48125 C2,21.040625 2.203125,21.5125 2.53125,21.840625 L12.40625,11.96875 L2.53125,2.15625 Z M17.953125,9.421875 L20.609375,10.875 C21.75,11.484375 21.75,12.515625 20.609375,13.125 L17.953125,14.578125 L14.625,11.25 L17.953125,9.421875 Z M3.609375,22.5 C3.984375,22.21875 4.359375,22.171875 4.6875,21.99375 L16.490625,15.61875 L13.490625,12.61875 L3.609375,22.5 Z" fill="#FFFFFF"></path>
    </g>
</svg> 